<svg preserveAspectRatio="xMidYMid meet" data-bbox="0 0 325 388" viewBox="0 0 325 388" xmlns="http://www.w3.org/2000/svg" data-type="ugc" role="img" aria-label="a logo">
    <g>
        <g stroke-width="2">
            <path d="m96.6 309.95-3.61.06q-.5.01-.78.43-1.47 2.16-1.67 4.09c-2.06 19.27-1.96 37.46-.12 59.97q.42 5.04 1.74 9.86.13.5.64.39 24.25-5.55 44.93-19.31 4.74-3.15 9.46-6.52.41-.29.9-.24 15.4 1.37 30.79.01.56-.05 1 .29 24.2 18.32 53.67 25.75a1.4 1.4 0 0 0 1.71-1.04c1.91-8.22 1.61-17.5 1.94-25.93.42-10.95-.13-21.99-.52-33.01q-.14-4.08-2.19-14.27-.1-.49-.61-.47l-4.92.14" stroke="#999999" fill="none"></path>
            <path d="M228.96 310.15q32.49-15.24 54.36-40.84 23.31-27.29 29.01-62.9c2.62-16.37 3.22-31.56-.67-47.46-1.56-6.39-2.59-10.95-3.89-16.33a4.43 4.38 49.4 0 1 .19-2.67c3.63-9.17 7.39-18.89 9.63-28.15 6.94-28.66 6.23-57.47-1.03-86.11q-.39-1.54-1.51-4.79c-1.32-3.8-1.58-7.57-3.87-10.85-4.57-6.53-11.92-4.18-18.43-2.29q-45.55 13.26-81.86 43.11-1.1.91-2.15.6-45.85-13.24-91.83-.46-1.84.52-3.96-1.22Q76.93 20.4 30.58 7.27c-6.68-1.89-10.97-3.48-15.29 2.3q-3.26 4.35-4.31 7.68C-2.15 58.74.6 101.13 18.19 140.71a3.03 3.01-48.3 0 1 .12 2.15C2.44 193.03 15.55 246.48 54.35 281.9q18.31 16.71 42.25 28.05" stroke="#f7f5f0" fill="none"></path>
            <path d="M228.96 310.15q-12.73 1.4-25.49 5.71-2.56.86-7.36 2.96-3.83 1.67-7.36 2.95" stroke="#918f8a" fill="none"></path>
            <path d="M188.75 321.77q-24.58 3.46-49.23.63" stroke="#f7f5f0" fill="none"></path>
            <path d="M139.52 322.4q-13.46-6.43-25.27-9.42-6.7-1.7-17.65-3.03" stroke="#918f8a" fill="none"></path>
            <path d="M139.52 322.4c3.01 1.88 6.47 4.3 10.14 4.01q13.96-1.08 27.91-.1 2.29.17 4.18-.72 3.4-1.59 7-3.82" stroke="#999999" fill="none"></path>
            <path d="M286.69 142.37c-.57-4.87 1.44-8.14 3.33-12.17.47-1 1.5-1.74 1.72-2.99q.36-2.08.48-2.38c11.86-30.01 13.07-62.55 5.36-93.76-.44-1.8-1.29-3.07-3.32-2.47q-41.91 12.42-74.67 42.01c-5.2 4.7-10.02 1.91-15.66.29-30.47-8.75-58.96-7.07-89.19 1.81q-4.61 1.36-7.64-1.32-33.39-29.5-75.9-43.15-1.9-.61-2.37 1.33c-1.72 7.05-3.96 14.76-4.44 21.94q-.19 2.76-.45 5.51-3.89 41.01 13.68 77.84c1.65 3.47 2.46 6.27 1.2 9.64-26.64 71.02 20.79 137.48 89.43 155.14 48.5 12.48 101.67-1.9 135.97-39.14q35.83-38.88 28.91-91.53c-1.2-9.11-5.37-17.32-6.44-26.6" stroke="#f7f5f0" fill="none"></path>
        </g>
        <path d="M0 0h325v388H0V0Zm96.6 309.95-3.61.06q-.5.01-.78.43-1.47 2.16-1.67 4.09c-2.06 19.27-1.96 37.46-.12 59.97q.42 5.04 1.74 9.86.13.5.64.39 24.25-5.55 44.93-19.31 4.74-3.15 9.46-6.52.41-.29.9-.24 15.4 1.37 30.79.01.56-.05 1 .29 24.2 18.32 53.67 25.75a1.4 1.4 0 0 0 1.71-1.04c1.91-8.22 1.61-17.5 1.94-25.93.42-10.95-.13-21.99-.52-33.01q-.14-4.08-2.19-14.27-.1-.49-.61-.47l-4.92.14q32.49-15.24 54.36-40.84 23.31-27.29 29.01-62.9c2.62-16.37 3.22-31.56-.67-47.46-1.56-6.39-2.59-10.95-3.89-16.33a4.43 4.38 49.4 0 1 .19-2.67c3.63-9.17 7.39-18.89 9.63-28.15 6.94-28.66 6.23-57.47-1.03-86.11q-.39-1.54-1.51-4.79c-1.32-3.8-1.58-7.57-3.87-10.85-4.57-6.53-11.92-4.18-18.43-2.29q-45.55 13.26-81.86 43.11-1.1.91-2.15.6-45.85-13.24-91.83-.46-1.84.52-3.96-1.22Q76.93 20.4 30.58 7.27c-6.68-1.89-10.97-3.48-15.29 2.3q-3.26 4.35-4.31 7.68C-2.15 58.74.6 101.13 18.19 140.71a3.03 3.01-48.3 0 1 .12 2.15C2.44 193.03 15.55 246.48 54.35 281.9q18.31 16.71 42.25 28.05Z" fill="#ffffff"></path>
        <path d="M228.96 310.15q-12.73 1.4-25.49 5.71-2.56.86-7.36 2.96-3.83 1.67-7.36 2.95-24.58 3.46-49.23.63-13.46-6.43-25.27-9.42-6.7-1.7-17.65-3.03-23.94-11.34-42.25-28.05c-38.8-35.42-51.91-88.87-36.04-139.04a3.03 3.01-48.3 0 0-.12-2.15C.6 101.13-2.15 58.74 10.98 17.25q1.05-3.33 4.31-7.68c4.32-5.78 8.61-4.19 15.29-2.3q46.35 13.13 82.37 42.52 2.12 1.74 3.96 1.22 45.98-12.78 91.83.46 1.05.31 2.15-.6 36.31-29.85 81.86-43.11c6.51-1.89 13.86-4.24 18.43 2.29 2.29 3.28 2.55 7.05 3.87 10.85q1.12 3.25 1.51 4.79c7.26 28.64 7.97 57.45 1.03 86.11-2.24 9.26-6 18.98-9.63 28.15a4.43 4.38 49.4 0 0-.19 2.67c1.3 5.38 2.33 9.94 3.89 16.33 3.89 15.9 3.29 31.09.67 47.46q-5.7 35.61-29.01 62.9-21.87 25.6-54.36 40.84Zm57.73-167.78c-.57-4.87 1.44-8.14 3.33-12.17.47-1 1.5-1.74 1.72-2.99q.36-2.08.48-2.38c11.86-30.01 13.07-62.55 5.36-93.76-.44-1.8-1.29-3.07-3.32-2.47q-41.91 12.42-74.67 42.01c-5.2 4.7-10.02 1.91-15.66.29-30.47-8.75-58.96-7.07-89.19 1.81q-4.61 1.36-7.64-1.32-33.39-29.5-75.9-43.15-1.9-.61-2.37 1.33c-1.72 7.05-3.96 14.76-4.44 21.94q-.19 2.76-.45 5.51-3.89 41.01 13.68 77.84c1.65 3.47 2.46 6.27 1.2 9.64-26.64 71.02 20.79 137.48 89.43 155.14 48.5 12.48 101.67-1.9 135.97-39.14q35.83-38.88 28.91-91.53c-1.2-9.11-5.37-17.32-6.44-26.6Z" fill="#efebe1"></path>
        <path d="M286.69 142.37c1.07 9.28 5.24 17.49 6.44 26.6q6.92 52.65-28.91 91.53c-34.3 37.24-87.47 51.62-135.97 39.14-68.64-17.66-116.07-84.12-89.43-155.14 1.26-3.37.45-6.17-1.2-9.64Q20.05 98.03 23.94 57.02q.26-2.75.45-5.51c.48-7.18 2.72-14.89 4.44-21.94q.47-1.94 2.37-1.33 42.51 13.65 75.9 43.15 3.03 2.68 7.64 1.32c30.23-8.88 58.72-10.56 89.19-1.81 5.64 1.62 10.46 4.41 15.66-.29q32.76-29.59 74.67-42.01c2.03-.6 2.88.67 3.32 2.47 7.71 31.21 6.5 63.75-5.36 93.76q-.12.3-.48 2.38c-.22 1.25-1.25 1.99-1.72 2.99-1.89 4.03-3.9 7.3-3.33 12.17Z" fill="#ffffff"></path>
        <path d="M96.6 309.95q10.95 1.33 17.65 3.03 11.81 2.99 25.27 9.42c3.01 1.88 6.47 4.3 10.14 4.01q13.96-1.08 27.91-.1 2.29.17 4.18-.72 3.4-1.59 7-3.82 3.53-1.28 7.36-2.95 4.8-2.1 7.36-2.96 12.76-4.31 25.49-5.71l4.92-.14q.51-.02.61.47 2.05 10.19 2.19 14.27c.39 11.02.94 22.06.52 33.01-.33 8.43-.03 17.71-1.94 25.93a1.4 1.4 0 0 1-1.71 1.04q-29.47-7.43-53.67-25.75-.44-.34-1-.29-15.39 1.36-30.79-.01-.49-.05-.9.24-4.72 3.37-9.46 6.52-20.68 13.76-44.93 19.31-.51.11-.64-.39-1.32-4.82-1.74-9.86c-1.84-22.51-1.94-40.7.12-59.97q.2-1.93 1.67-4.09.28-.42.78-.43l3.61-.06Z" fill="#323232"></path>
        <path d="M188.75 321.77q-3.6 2.23-7 3.82-1.89.89-4.18.72-13.95-.98-27.91.1c-3.67.29-7.13-2.13-10.14-4.01q24.65 2.83 49.23-.63Z" fill="#ffffff"></path>
    </g>
</svg>
