<?xml version="1.0" encoding="UTF-8" standalone="no"?>
<svg
   preserveAspectRatio="xMidYMid"
   data-bbox="0 0 325 388"
   viewBox="0 0 23.951603 23.975796"
   data-type="ugc"
   role="img"
   aria-label="a logo"
   version="1.1"
   id="svg12"
   width="23.951603"
   height="23.975796"
   xmlns="http://www.w3.org/2000/svg"
   xmlns:svg="http://www.w3.org/2000/svg">
  <defs
     id="defs12" />
  <g
     id="g12"
     transform="translate(-0.04839872,-0.02420477)">
    <path
       d="m 22.21058,10.036941 c 0.08801,0.77313 0.430984,1.457118 0.529681,2.216081 q 0.569158,4.386347 -2.377806,7.625494 C 17.541329,22.981032 13.16817,24.179051 9.1791151,23.139326 3.5335731,21.668046 -0.36747692,16.131171 1.8236252,10.214395 1.9272582,9.933636 1.8606373,9.7003631 1.7249275,9.4112726 Q 0.27981935,6.3429137 0.59976632,2.926313 0.62115108,2.6972067 0.63677822,2.4672672 C 0.67625759,1.8690915 0.86049424,1.2267604 1.0019618,0.63941515 Q 1.0406182,0.47779102 1.1968911,0.52861136 4.6932781,1.6658119 7.4395581,4.1234983 7.6887713,4.3467729 8.0679372,4.2334699 C 10.554312,3.4936637 12.897576,3.3537006 15.403687,4.0826756 c 0.463882,0.1349641 0.86032,0.3674031 1.288014,-0.024161 q 2.694464,-2.4651845 6.1415,-3.49991218 c 0.166967,-0.049987 0.236875,0.0558185 0.273065,0.20577917 0.634138,2.60014901 0.534616,5.31110181 -0.440851,7.81127681 q -0.0099,0.024994 -0.03947,0.1982814 c -0.01809,0.1041382 -0.102814,0.1657894 -0.141469,0.249101 -0.15545,0.3357449 -0.32077,0.6081732 -0.273888,1.0138992 z"
       fill="#ffffff"
       id="path10"
       style="fill:none;stroke:#c9a96e;stroke-width:0.987379;stroke-dasharray:none;stroke-opacity:1" />
  </g>
</svg>
